<svg width="121" height="112" viewBox="0 0 121 112" fill="none" xmlns="http://www.w3.org/2000/svg">
<g clip-path="url(#clip0_3_9)">
<circle cx="59.6716" cy="54.6937" r="19" fill="#F5304C"/>
<g filter="url(#filter0_d_3_9)">
<path d="M79.0267 80.4671C72.0246 85.9377 64.565 90.6587 57.0841 94.3624C49.5988 98.0684 42.2784 100.664 35.5489 102.035C28.8061 103.409 22.8938 103.506 18.099 102.464C13.3303 101.428 9.83641 99.3089 7.56608 96.403C5.29574 93.4971 4.08505 89.5944 4.23325 84.7166C4.38226 79.8121 5.90673 74.099 8.87111 67.8888C11.8296 61.691 16.1189 55.2159 21.5256 48.8495C26.9292 42.4868 33.3145 36.3909 40.3166 30.9203" stroke="#F5304C" stroke-width="6"/>
</g>
<g filter="url(#filter1_d_3_9)">
<path d="M111.777 96.403C107.002 102.515 97.1434 104.755 83.7943 102.035C70.645 99.3557 55.0717 91.995 40.3166 80.4671C25.5615 68.9391 14.6519 55.6091 8.8711 43.4986C3.00241 31.204 2.79127 21.0959 7.5661 14.9844C12.3409 8.87288 22.1998 6.63238 35.549 9.35241C48.6983 12.0317 64.2716 19.3924 79.0267 30.9203C93.7818 42.4483 104.691 55.7783 110.472 67.8888C116.341 80.1834 116.552 90.2915 111.777 96.403Z" stroke="#F5304C" stroke-width="6" shape-rendering="crispEdges"/>
</g>
<g filter="url(#filter2_d_3_9)">
<path d="M40.3166 30.9203C47.3187 25.4497 54.7782 20.7287 62.2592 17.025C69.7445 13.319 77.0649 10.7236 83.7943 9.35241C90.5372 7.97848 96.4494 7.88143 101.244 8.92336C106.013 9.95961 109.507 12.0785 111.777 14.9844C114.048 17.8903 115.258 21.793 115.11 26.6707C114.961 31.5752 113.437 37.2884 110.472 43.4986C107.514 49.6964 103.224 56.1714 97.8177 62.5378C92.4141 68.9006 86.0288 74.9964 79.0267 80.4671" stroke="#F5304C" stroke-width="6"/>
</g>
<path d="M34.7382 35.5237C42.1157 29.0954 50.2336 23.4439 58.5149 18.9645C66.8013 14.4823 75.0049 11.3068 82.5423 9.62012C90.0989 7.92916 96.6673 7.80503 101.858 9.0645C107.002 10.3126 110.599 12.8604 112.724 16.3547C114.87 19.8841 115.678 24.6534 114.73 30.554C113.781 36.4617 111.112 43.1928 106.776 50.272C102.448 57.3377 96.6193 64.4885 89.6771 71.2071C82.7373 77.9233 74.8835 84.015 66.6713 89.0518" stroke="#F5304C" stroke-width="6"/>
<g filter="url(#filter3_d_3_9)">
<ellipse cx="109.672" cy="13.6512" rx="6" ry="6.21523" fill="#F5304C"/>
</g>
<g filter="url(#filter4_d_3_9)">
<ellipse cx="80.6716" cy="34.3686" rx="6" ry="6.21523" fill="#F5304C"/>
</g>
<g filter="url(#filter5_d_3_9)">
<ellipse cx="113.672" cy="94.4492" rx="6" ry="6.21523" fill="#F5304C"/>
</g>
</g>
<defs>
<filter id="filter0_d_3_9" x="-2.77887" y="28.5562" width="87.6526" height="85.61" filterUnits="userSpaceOnUse" color-interpolation-filters="sRGB">
<feFlood flood-opacity="0" result="BackgroundImageFix"/>
<feColorMatrix in="SourceAlpha" type="matrix" values="0 0 0 0 0 0 0 0 0 0 0 0 0 0 0 0 0 0 127 0" result="hardAlpha"/>
<feOffset dy="4"/>
<feGaussianBlur stdDeviation="2"/>
<feComposite in2="hardAlpha" operator="out"/>
<feColorMatrix type="matrix" values="0 0 0 0 0 0 0 0 0 0 0 0 0 0 0 0 0 0 0.42 0"/>
<feBlend mode="normal" in2="BackgroundImageFix" result="effect1_dropShadow_3_9"/>
<feBlend mode="normal" in="SourceGraphic" in2="effect1_dropShadow_3_9" result="shape"/>
</filter>
<filter id="filter1_d_3_9" x="-2.09456" y="5.21484" width="123.532" height="108.258" filterUnits="userSpaceOnUse" color-interpolation-filters="sRGB">
<feFlood flood-opacity="0" result="BackgroundImageFix"/>
<feColorMatrix in="SourceAlpha" type="matrix" values="0 0 0 0 0 0 0 0 0 0 0 0 0 0 0 0 0 0 127 0" result="hardAlpha"/>
<feOffset dy="4"/>
<feGaussianBlur stdDeviation="1.65"/>
<feComposite in2="hardAlpha" operator="out"/>
<feColorMatrix type="matrix" values="0 0 0 0 0 0 0 0 0 0 0 0 0 0 0 0 0 0 0.7 0"/>
<feBlend mode="normal" in2="BackgroundImageFix" result="effect1_dropShadow_3_9"/>
<feBlend mode="normal" in="SourceGraphic" in2="effect1_dropShadow_3_9" result="shape"/>
</filter>
<filter id="filter2_d_3_9" x="34.4696" y="5.22116" width="87.6526" height="85.6099" filterUnits="userSpaceOnUse" color-interpolation-filters="sRGB">
<feFlood flood-opacity="0" result="BackgroundImageFix"/>
<feColorMatrix in="SourceAlpha" type="matrix" values="0 0 0 0 0 0 0 0 0 0 0 0 0 0 0 0 0 0 127 0" result="hardAlpha"/>
<feOffset dy="4"/>
<feGaussianBlur stdDeviation="2"/>
<feComposite in2="hardAlpha" operator="out"/>
<feColorMatrix type="matrix" values="0 0 0 0 0 0 0 0 0 0 0 0 0 0 0 0 0 0 0.53 0"/>
<feBlend mode="normal" in2="BackgroundImageFix" result="effect1_dropShadow_3_9"/>
<feBlend mode="normal" in="SourceGraphic" in2="effect1_dropShadow_3_9" result="shape"/>
</filter>
<filter id="filter3_d_3_9" x="99.6716" y="7.436" width="20" height="20.4305" filterUnits="userSpaceOnUse" color-interpolation-filters="sRGB">
<feFlood flood-opacity="0" result="BackgroundImageFix"/>
<feColorMatrix in="SourceAlpha" type="matrix" values="0 0 0 0 0 0 0 0 0 0 0 0 0 0 0 0 0 0 127 0" result="hardAlpha"/>
<feOffset dy="4"/>
<feGaussianBlur stdDeviation="2"/>
<feComposite in2="hardAlpha" operator="out"/>
<feColorMatrix type="matrix" values="0 0 0 0 0 0 0 0 0 0 0 0 0 0 0 0 0 0 0.34 0"/>
<feBlend mode="normal" in2="BackgroundImageFix" result="effect1_dropShadow_3_9"/>
<feBlend mode="normal" in="SourceGraphic" in2="effect1_dropShadow_3_9" result="shape"/>
</filter>
<filter id="filter4_d_3_9" x="70.6716" y="28.1534" width="20" height="20.4305" filterUnits="userSpaceOnUse" color-interpolation-filters="sRGB">
<feFlood flood-opacity="0" result="BackgroundImageFix"/>
<feColorMatrix in="SourceAlpha" type="matrix" values="0 0 0 0 0 0 0 0 0 0 0 0 0 0 0 0 0 0 127 0" result="hardAlpha"/>
<feOffset dy="4"/>
<feGaussianBlur stdDeviation="2"/>
<feComposite in2="hardAlpha" operator="out"/>
<feColorMatrix type="matrix" values="0 0 0 0 0 0 0 0 0 0 0 0 0 0 0 0 0 0 0.34 0"/>
<feBlend mode="normal" in2="BackgroundImageFix" result="effect1_dropShadow_3_9"/>
<feBlend mode="normal" in="SourceGraphic" in2="effect1_dropShadow_3_9" result="shape"/>
</filter>
<filter id="filter5_d_3_9" x="103.672" y="88.234" width="20" height="20.4305" filterUnits="userSpaceOnUse" color-interpolation-filters="sRGB">
<feFlood flood-opacity="0" result="BackgroundImageFix"/>
<feColorMatrix in="SourceAlpha" type="matrix" values="0 0 0 0 0 0 0 0 0 0 0 0 0 0 0 0 0 0 127 0" result="hardAlpha"/>
<feOffset dy="4"/>
<feGaussianBlur stdDeviation="2"/>
<feComposite in2="hardAlpha" operator="out"/>
<feColorMatrix type="matrix" values="0 0 0 0 0 0 0 0 0 0 0 0 0 0 0 0 0 0 0.34 0"/>
<feBlend mode="normal" in2="BackgroundImageFix" result="effect1_dropShadow_3_9"/>
<feBlend mode="normal" in="SourceGraphic" in2="effect1_dropShadow_3_9" result="shape"/>
</filter>
<clipPath id="clip0_3_9">
<rect width="121" height="112" fill="white"/>
</clipPath>
</defs>
</svg>
